#N canvas 551 548 450 300 10;
#X obj 112 121 ebur128~, f 12;
#X obj 112 96 adc~;
#X msg 95 68 reset;
#X obj 112 146 pack f f f f;
#X obj 112 169 else/display;
#X obj 229 74 tgl 15 0 empty empty empty 17 7 0 10 -262144 -1 -1 0
1;
#X obj 229 94 metro 250;
#X obj 229 51 loadbang;
#X obj 16 15 esdf/dsp~;
#X connect 0 0 3 0;
#X connect 0 1 3 1;
#X connect 0 2 3 2;
#X connect 0 3 3 3;
#X connect 1 0 0 0;
#X connect 1 1 0 1;
#X connect 2 0 0 0;
#X connect 3 0 4 0;
#X connect 5 0 6 0;
#X connect 6 0 0 0;
#X connect 7 0 5 0;
